<svg width="512" height="512" viewBox="0 0 512 512" fill="none" xmlns="http://www.w3.org/2000/svg">
<g clip-path="url(#clip0_241_419)">
<path d="M320 383.681V511.681H192V383.681C192 348.335 220.654 319.681 256 319.681C291.346 319.681 320 348.335 320 383.681Z" fill="black"/>
<path d="M253.406 276.637C196.699 278.005 149.732 325.509 149.333 383.681V511.681H64C28.654 511.681 1.51383e-06 483.027 1.51383e-06 447.681V253.42C-0.00299849 242.15 4.453 231.336 12.395 223.34L193.366 27.4142C194.885 25.7702 196.469 24.1872 198.113 22.6672C232.723 -9.3208 286.711 -7.1958 318.699 27.4142L499.989 223.404C507.698 231.367 512.005 242.017 512 253.1V447.681C512 483.027 483.346 511.681 448 511.681H362.667V383.681C362.22 323.536 312.01 275.223 253.406 276.637Z" fill="#009CFF"/>
<path d="M320 383.681V511.681H192V383.681C192 348.335 220.654 319.681 256 319.681C291.346 319.681 320 348.335 320 383.681Z" fill="#009CFF"/>
</g>
<defs>
<clipPath id="clip0_241_419">
<rect width="512" height="511.681" fill="white"/>
</clipPath>
</defs>
</svg>
