<svg width="512" height="512" viewBox="0 0 512 512" fill="none" xmlns="http://www.w3.org/2000/svg">
<g clip-path="url(#clip0_241_415)">
<path d="M0 256C0 114.615 114.615 0 256 0C397.385 0 512 114.615 512 256C512 397.385 397.385 512 256 512C114.678 511.847 0.15285 397.322 0 256ZM224 138.667C224 156.34 238.327 170.667 256 170.667C273.673 170.667 288 156.34 288 138.667C288 120.994 273.673 106.667 256 106.667C238.327 106.667 224 120.994 224 138.667ZM213.333 234.667C213.333 246.449 222.885 256 234.667 256H256V384C256 395.782 265.551 405.333 277.333 405.333C289.115 405.333 298.667 395.782 298.667 384V256C298.667 232.436 279.564 213.333 256 213.333H234.667C222.885 213.333 213.333 222.885 213.333 234.667Z" fill="#009CFF"/>
</g>
<defs>
<clipPath id="clip0_241_415">
<rect width="512" height="512" fill="white"/>
</clipPath>
</defs>
</svg>
